<svg xmlns="http://www.w3.org/2000/svg" width="64" height="64" style="shape-rendering:geometricPrecision;text-rendering:geometricPrecision;image-rendering:optimizeQuality;fill-rule:evenodd;clip-rule:evenodd"><path style="opacity:.827" fill="#b87023" d="M33.5-.5h6c11.667 4.333 19.667 12.333 24 24v6c-1.188 1.184-2.355 1.184-3.5 0C56.5 15.333 47.667 6.5 33.5 3c-1.184-1.145-1.184-2.312 0-3.5Z"/><path style="opacity:.841" fill="#b87023" d="M50.5 63.5h-11c-19-7.667-32.333-21-40-40v-11c3.08-4.412 7.08-7.746 12-10 5.9 3.063 10.734 7.396 14.5 13 .667 1.333.667 2.667 0 4-1.848 2.51-3.681 5.01-5.5 7.5 3.833 6.5 9 11.667 15.5 15.5 2.49-1.819 4.99-3.652 7.5-5.5 1.333-.667 2.667-.667 4 0 5.405 3.736 9.739 8.403 13 14-2.06 5.223-5.394 9.39-10 12.5Zm-40-56c4.142 1.62 7.642 4.286 10.5 8-.265 3.32-1.931 5.986-5 8-.743 3.283-.076 6.283 2 9 4.756 6.788 10.922 11.788 18.5 15 2.738-1.228 5.07-3.062 7-5.5 5.468.932 9.468 4.099 12 9.5-2.833 5.375-7.166 7.875-13 7.5-20.527-6.526-33.527-20.193-39-41A9.625 9.625 0 0 1 5 13.5a46.141 46.141 0 0 0 5.5-6Z"/><path style="opacity:.828" fill="#b87023" d="M33.5 10.5c9.983 1.815 16.316 7.648 19 17.5-.833 2.5-2.333 3-4.5 1.5-1.676-8.342-6.676-13.342-15-15-.58-1.428-.412-2.762.5-4Z"/></svg>