<?xml version="1.0" encoding="UTF-8"?>
<!DOCTYPE svg PUBLIC "-//W3C//DTD SVG 1.1//EN" "http://www.w3.org/Graphics/SVG/1.1/DTD/svg11.dtd">
<svg xmlns="http://www.w3.org/2000/svg" version="1.1" width="64px" height="64px" style="shape-rendering:geometricPrecision; text-rendering:geometricPrecision; image-rendering:optimizeQuality; fill-rule:evenodd; clip-rule:evenodd" xmlns:xlink="http://www.w3.org/1999/xlink">
<g><path style="opacity:0.747" fill="#b87023" d="M 25.5,-0.5 C 29.5,-0.5 33.5,-0.5 37.5,-0.5C 46.8229,3.80749 50.6562,11.1408 49,21.5C 48.0642,25.2074 46.2308,28.3741 43.5,31C 39.9199,33.2533 36.2532,35.0866 32.5,36.5C 39.8108,37.3313 47.1441,37.8313 54.5,38C 55.1125,40.1474 55.7792,42.314 56.5,44.5C 59.1301,45.8037 61.4634,47.4704 63.5,49.5C 63.5,50.8333 63.5,52.1667 63.5,53.5C 61.203,52.1653 59.203,50.3319 57.5,48C 51.9744,46.6803 48.641,48.847 47.5,54.5C 47.7332,55.9317 48.3999,56.4317 49.5,56C 50.2401,54.2151 50.9067,52.3817 51.5,50.5C 53.5,49.1667 55.5,49.1667 57.5,50.5C 58.0933,52.3817 58.7599,54.2151 59.5,56C 60.7441,56.4561 61.5774,55.9561 62,54.5C 62.3826,55.056 62.8826,55.3893 63.5,55.5C 63.5,56.5 63.5,57.5 63.5,58.5C 62.1667,60.5 60.5,62.1667 58.5,63.5C 55.8333,63.5 53.1667,63.5 50.5,63.5C 42.1718,56.4201 42.8385,50.0867 52.5,44.5C 53.4287,43.3112 53.762,41.9778 53.5,40.5C 46.5,40.5 39.5,40.5 32.5,40.5C 32.238,41.9778 32.5713,43.3112 33.5,44.5C 43.3223,49.9307 43.989,56.264 35.5,63.5C 32.8333,63.5 30.1667,63.5 27.5,63.5C 19.4903,56.4421 20.157,50.1088 29.5,44.5C 30.4287,43.3112 30.762,41.9778 30.5,40.5C 23.8333,40.5 17.1667,40.5 10.5,40.5C 10.3433,41.8734 10.51,43.2068 11,44.5C 19.8753,49.754 20.7086,56.0873 13.5,63.5C 10.5,63.5 7.5,63.5 4.5,63.5C 2.5,62.1667 0.833333,60.5 -0.5,58.5C -0.5,55.8333 -0.5,53.1667 -0.5,50.5C 1.23186,47.6076 3.73186,45.6076 7,44.5C 7.23622,42.236 7.73622,40.0693 8.5,38C 15.8559,37.8313 23.1892,37.3313 30.5,36.5C 26.2006,34.5954 22.0339,32.2621 18,29.5C 15.217,25.9846 13.717,21.9846 13.5,17.5C 14.5,17.5 15.5,17.5 16.5,17.5C 16.4598,20.4245 17.2932,23.0912 19,25.5C 21.1398,23.5131 23.6398,22.1798 26.5,21.5C 22.6507,15.8307 22.6507,10.3307 26.5,5C 36.9782,1.83445 41.1448,5.66778 39,16.5C 38.028,18.3049 36.8613,19.9716 35.5,21.5C 38.7335,22.0409 41.5669,23.3742 44,25.5C 49.611,12.5306 45.4443,4.53058 31.5,1.5C 23.2604,2.74077 18.2604,7.40744 16.5,15.5C 15.325,15.719 14.325,15.3857 13.5,14.5C 15.3018,7.70251 19.3018,2.70251 25.5,-0.5 Z M 29.5,10.5 C 30.8333,10.5 32.1667,10.5 33.5,10.5C 33.4772,12.5996 34.1439,14.4329 35.5,16C 32.8333,20.6667 30.1667,20.6667 27.5,16C 28.8561,14.4329 29.5228,12.5996 29.5,10.5 Z M 22.5,25.5 C 24.6899,26.8022 26.6899,28.4689 28.5,30.5C 25.4795,31.4985 23.1461,30.4985 21.5,27.5C 21.8627,26.8165 22.1961,26.1499 22.5,25.5 Z M 38.5,25.5 C 39.9953,25.4148 40.9953,26.0815 41.5,27.5C 39.8539,30.4985 37.5205,31.4985 34.5,30.5C 36.5522,29.3892 37.8855,27.7225 38.5,25.5 Z M 6.5,47.5 C 13.7707,47.0357 16.604,50.3691 15,57.5C 13.0186,55.6409 12.0186,53.3076 12,50.5C 9.40821,49.0183 7.07488,49.3517 5,51.5C 4.64011,53.6079 3.97345,55.6079 3,57.5C 1.26238,53.2146 2.42905,49.8812 6.5,47.5 Z M 29.5,47.5 C 35.8457,47.5009 38.5123,50.5009 37.5,56.5C 35.8693,54.9412 35.036,52.9412 35,50.5C 32.8615,49.2309 30.6948,49.2309 28.5,50.5C 27.9649,52.6608 27.1316,54.6608 26,56.5C 24.291,52.5588 25.4577,49.5588 29.5,47.5 Z M 8.5,51.5 C 9.7759,52.3864 9.7759,53.3864 8.5,54.5C 7.43764,53.5754 7.43764,52.5754 8.5,51.5 Z M 31.5,51.5 C 32.7759,52.3864 32.7759,53.3864 31.5,54.5C 30.4376,53.5754 30.4376,52.5754 31.5,51.5 Z M 53.5,52.5 C 55.337,52.6395 55.6704,53.3061 54.5,54.5C 53.7025,54.0431 53.3691,53.3764 53.5,52.5 Z M 5.5,57.5 C 7.5273,57.3379 9.5273,57.5045 11.5,58C 12.495,60.0545 11.6616,61.2212 9,61.5C 6.62492,61.1822 5.45825,59.8489 5.5,57.5 Z M 28.5,57.5 C 30.5273,57.3379 32.5273,57.5045 34.5,58C 34.9574,58.414 35.2907,58.914 35.5,59.5C 32.9695,61.9337 30.3029,62.1003 27.5,60C 28.2524,59.3292 28.5858,58.4959 28.5,57.5 Z M 51.5,57.5 C 54.3641,57.0642 56.6975,57.8975 58.5,60C 57.1279,60.4017 55.7946,60.9017 54.5,61.5C 53.2054,60.9017 51.8721,60.4017 50.5,60C 51.2524,59.3292 51.5858,58.4959 51.5,57.5 Z"/></g>
</svg>
