<?xml version="1.0" encoding="UTF-8"?>
<!DOCTYPE svg PUBLIC "-//W3C//DTD SVG 1.1//EN" "http://www.w3.org/Graphics/SVG/1.1/DTD/svg11.dtd">
<svg xmlns="http://www.w3.org/2000/svg" version="1.1" width="64px" height="64px" style="shape-rendering:geometricPrecision; text-rendering:geometricPrecision; image-rendering:optimizeQuality; fill-rule:evenodd; clip-rule:evenodd" xmlns:xlink="http://www.w3.org/1999/xlink">
<g><path style="opacity:0.728" fill="#b87023" d="M 18.5,-0.5 C 27.1667,-0.5 35.8333,-0.5 44.5,-0.5C 45.6068,4.08148 45.7734,8.74815 45,13.5C 36.4587,12.4413 29.6254,15.2746 24.5,22C 23.552,22.4828 22.552,22.6495 21.5,22.5C 21.5,19.8333 21.5,17.1667 21.5,14.5C 20.1779,14.67 19.0113,14.3366 18,13.5C 17.2266,8.74815 17.3932,4.08148 18.5,-0.5 Z M 20.5,2.5 C 27.8333,2.5 35.1667,2.5 42.5,2.5C 42.5,5.5 42.5,8.5 42.5,11.5C 38.1539,11.3343 33.8206,11.501 29.5,12C 28,13.5 26.5,15 25,16.5C 25.266,13.0992 23.766,11.4326 20.5,11.5C 20.5,8.5 20.5,5.5 20.5,2.5 Z"/></g>
<g><path style="opacity:0.657" fill="#b87024" d="M 21.5,3.5 C 23.8333,3.5 26.1667,3.5 28.5,3.5C 28.5,4.5 28.5,5.5 28.5,6.5C 26.1667,6.5 23.8333,6.5 21.5,6.5C 21.5,5.5 21.5,4.5 21.5,3.5 Z"/></g>
<g><path style="opacity:0.686" fill="#b87024" d="M 29.5,3.5 C 33.5,3.5 37.5,3.5 41.5,3.5C 41.5,4.5 41.5,5.5 41.5,6.5C 37.5,6.5 33.5,6.5 29.5,6.5C 29.5,5.5 29.5,4.5 29.5,3.5 Z"/></g>
<g><path style="opacity:0.688" fill="#b77023" d="M 21.5,7.5 C 28.1667,7.5 34.8333,7.5 41.5,7.5C 41.5,8.5 41.5,9.5 41.5,10.5C 34.8333,10.5 28.1667,10.5 21.5,10.5C 21.5,9.5 21.5,8.5 21.5,7.5 Z"/></g>
<g><path style="opacity:0.788" fill="#b87023" d="M 63.5,14.5 C 63.5,17.1667 63.5,19.8333 63.5,22.5C 61.0776,24.2855 61.0776,25.9522 63.5,27.5C 63.5,34.5 63.5,41.5 63.5,48.5C 62.1147,49.6138 60.6147,50.6138 59,51.5C 58.5012,55.4862 58.3345,59.4862 58.5,63.5C 57.5,63.5 56.5,63.5 55.5,63.5C 55.5,59.5 55.5,55.5 55.5,51.5C 53.5,51.5 51.5,51.5 49.5,51.5C 49.7633,55.6002 49.4299,59.6002 48.5,63.5C 45.1667,63.5 41.8333,63.5 38.5,63.5C 38.189,56.9102 38.5223,50.4102 39.5,44C 37.5273,43.5045 35.5273,43.3379 33.5,43.5C 33.5,49.1667 33.5,54.8333 33.5,60.5C 34.8333,60.5 36.1667,60.5 37.5,60.5C 37.5,61.5 37.5,62.5 37.5,63.5C 33.5,63.5 29.5,63.5 25.5,63.5C 25.5,62.5 25.5,61.5 25.5,60.5C 26.8333,60.5 28.1667,60.5 29.5,60.5C 29.5,54.8333 29.5,49.1667 29.5,43.5C 27.8333,43.5 26.1667,43.5 24.5,43.5C 24.5,50.1667 24.5,56.8333 24.5,63.5C 21.1667,63.5 17.8333,63.5 14.5,63.5C 13.5701,59.6002 13.2367,55.6002 13.5,51.5C 11.5,51.5 9.5,51.5 7.5,51.5C 7.5,55.5 7.5,59.5 7.5,63.5C 6.5,63.5 5.5,63.5 4.5,63.5C 4.66551,59.4862 4.49885,55.4862 4,51.5C 2.38533,50.6138 0.885333,49.6138 -0.5,48.5C -0.5,41.5 -0.5,34.5 -0.5,27.5C 1.92236,25.9522 1.92236,24.2855 -0.5,22.5C -0.5,19.8333 -0.5,17.1667 -0.5,14.5C 3.98081,8.8391 9.14748,8.17244 15,12.5C 18.3817,16.85 18.215,21.0167 14.5,25C 16.7949,27.7568 17.7949,30.9235 17.5,34.5C 20.5,34.5 23.5,34.5 26.5,34.5C 26.2011,36.604 26.5344,38.604 27.5,40.5C 30.1586,37.6709 32.6586,34.6709 35,31.5C 36.5495,34.7561 35.7162,37.5894 32.5,40C 38.1569,40.4994 43.8236,40.6661 49.5,40.5C 49.5,38.5 49.5,36.5 49.5,34.5C 46.4816,34.6646 43.4816,34.498 40.5,34C 37.3333,30.8333 34.1667,27.6667 31,24.5C 30.9895,21.1484 32.6562,18.8151 36,17.5C 38.7838,19.2799 41.2838,21.4465 43.5,24C 44.8333,24.6667 46.1667,24.6667 47.5,24C 45.3357,20.8811 45.1691,17.7144 47,14.5C 52.4959,7.89871 57.9959,7.89871 63.5,14.5 Z M 6.5,12.5 C 12.3559,12.854 14.5226,15.854 13,21.5C 9.71405,25.4851 6.38071,25.4851 3,21.5C 1.66494,17.3919 2.83161,14.3919 6.5,12.5 Z M 53.5,12.5 C 59.3559,12.854 61.5226,15.854 60,21.5C 56.6193,25.4851 53.286,25.4851 50,21.5C 48.6649,17.3919 49.8316,14.3919 53.5,12.5 Z M 34.5,21.5 C 37.2254,22.713 39.5588,24.5464 41.5,27C 47.7482,27.1883 53.9149,27.6883 60,28.5C 60.8306,34.8595 60.6639,41.1928 59.5,47.5C 55.2207,48.274 50.8874,48.774 46.5,49C 45.5399,52.73 45.2065,56.5633 45.5,60.5C 44.1667,60.5 42.8333,60.5 41.5,60.5C 41.3341,55.4889 41.5007,50.4889 42,45.5C 42.5,45 43,44.5 43.5,44C 46.4816,43.502 49.4816,43.3354 52.5,43.5C 52.5,39.5 52.5,35.5 52.5,31.5C 48.8183,31.6653 45.1516,31.4986 41.5,31C 38.8333,28.3333 36.1667,25.6667 33.5,23C 34.056,22.6174 34.3893,22.1174 34.5,21.5 Z M 3.5,27.5 C 6.51838,27.3354 9.51838,27.502 12.5,28C 13.1667,31 13.8333,34 14.5,37C 17.4816,37.498 20.4816,37.6646 23.5,37.5C 23.5,38.5 23.5,39.5 23.5,40.5C 19.1667,40.5 14.8333,40.5 10.5,40.5C 10.5,37.8333 10.5,35.1667 10.5,32.5C 9.5,32.5 8.5,32.5 7.5,32.5C 7.5,36.1667 7.5,39.8333 7.5,43.5C 11.5138,43.3345 15.5138,43.5012 19.5,44C 20,44.5 20.5,45 21,45.5C 21.4993,50.4889 21.6659,55.4889 21.5,60.5C 20.1667,60.5 18.8333,60.5 17.5,60.5C 17.7935,56.5633 17.4601,52.73 16.5,49C 12.1126,48.774 7.7793,48.274 3.5,47.5C 2.20756,40.7774 2.20756,34.1108 3.5,27.5 Z"/></g>
</svg>
