<?xml version="1.0" encoding="UTF-8"?>
<!DOCTYPE svg PUBLIC "-//W3C//DTD SVG 1.1//EN" "http://www.w3.org/Graphics/SVG/1.1/DTD/svg11.dtd">
<svg xmlns="http://www.w3.org/2000/svg" version="1.1" width="64px" height="64px" style="shape-rendering:geometricPrecision; text-rendering:geometricPrecision; image-rendering:optimizeQuality; fill-rule:evenodd; clip-rule:evenodd" xmlns:xlink="http://www.w3.org/1999/xlink">
<g><path style="opacity:0.756" fill="#b87023" d="M 0.5,-0.5 C 14.5,-0.5 28.5,-0.5 42.5,-0.5C 44.795,2.29709 47.295,4.96376 50,7.5C 51.5442,5.53179 52.7109,3.36512 53.5,1C 55.4406,0.257114 57.2739,0.423781 59,1.5C 58.8798,6.48022 60.0465,10.9802 62.5,15C 60.9289,19.7863 59.5955,24.6196 58.5,29.5C 57.5,29.5 56.5,29.5 55.5,29.5C 56.533,24.902 57.8663,20.402 59.5,16C 58.5165,15.4092 57.8499,15.7425 57.5,17C 56,22.1667 54.5,27.3333 53,32.5C 52.5002,42.828 52.3335,53.1613 52.5,63.5C 35.1667,63.5 17.8333,63.5 0.5,63.5C 0.5,52.8333 0.5,42.1667 0.5,31.5C 1.5,31.5 2.5,31.5 3.5,31.5C 3.5,41.5 3.5,51.5 3.5,61.5C 18.8333,61.5 34.1667,61.5 49.5,61.5C 49.666,56.1563 49.4994,50.8229 49,45.5C 47.6572,49.5096 45.4905,53.0096 42.5,56C 40.2992,56.8249 38.4659,56.3249 37,54.5C 36.3333,55.8333 35.3333,56.8333 34,57.5C 31.6194,56.565 29.1194,56.2317 26.5,56.5C 26.3537,54.0576 27.187,53.3909 29,54.5C 30.6667,51.8333 32.3333,51.8333 34,54.5C 34.5885,52.1367 36.0885,51.1367 38.5,51.5C 39.2131,43.3124 40.8798,35.3124 43.5,27.5C 44.5,27.5 45.5,27.5 46.5,27.5C 45.0407,33.213 43.374,38.8796 41.5,44.5C 42.8196,46.2701 44.3196,46.6034 46,45.5C 49.1989,34.0703 52.6989,22.737 56.5,11.5C 55.3315,9.78256 53.6648,9.11589 51.5,9.5C 50.6519,14.2258 49.4852,18.8924 48,23.5C 47.1739,25.4054 46.0072,25.7388 44.5,24.5C 45.8333,20.5 47.1667,16.5 48.5,12.5C 41.1053,12.438 38.1053,8.77137 39.5,1.5C 27.5,1.5 15.5,1.5 3.5,1.5C 3.66644,10.5062 3.49977,19.5062 3,28.5C 2.58605,28.9574 2.08605,29.2907 1.5,29.5C 0.501477,19.5222 0.168144,9.52216 0.5,-0.5 Z M 54.5,3.5 C 57.9983,3.56527 58.4983,4.8986 56,7.5C 54.8118,6.43659 54.3118,5.10326 54.5,3.5 Z M 42.5,4.5 C 47.1954,7.02513 47.1954,8.35847 42.5,8.5C 42.5,7.16667 42.5,5.83333 42.5,4.5 Z M 16.5,13.5 C 22.8333,13.5 29.1667,13.5 35.5,13.5C 35.5,14.5 35.5,15.5 35.5,16.5C 29.1667,16.5 22.8333,16.5 16.5,16.5C 16.5,15.5 16.5,14.5 16.5,13.5 Z M 41.5,48.5 C 45.1331,48.443 45.2998,49.443 42,51.5C 41.5172,50.552 41.3505,49.552 41.5,48.5 Z"/></g>
<g><path style="opacity:0.864" fill="#b87024" d="M 13.5,11.5 C 21.5069,11.3336 29.5069,11.5003 37.5,12C 38.8333,14 38.8333,16 37.5,18C 29.5069,18.4997 21.5069,18.6664 13.5,18.5C 13.5,16.1667 13.5,13.8333 13.5,11.5 Z M 16.5,13.5 C 16.5,14.5 16.5,15.5 16.5,16.5C 22.8333,16.5 29.1667,16.5 35.5,16.5C 35.5,15.5 35.5,14.5 35.5,13.5C 29.1667,13.5 22.8333,13.5 16.5,13.5 Z"/></g>
<g><path style="opacity:0.62" fill="#b77023" d="M 12.5,23.5 C 21.8571,23.1684 31.1904,23.5017 40.5,24.5C 40.2907,25.086 39.9574,25.586 39.5,26C 30.5062,26.4998 21.5062,26.6664 12.5,26.5C 12.5,25.5 12.5,24.5 12.5,23.5 Z"/></g>
<g><path style="opacity:0.626" fill="#b77024" d="M 12.5,30.5 C 21.1667,30.5 29.8333,30.5 38.5,30.5C 38.5,31.5 38.5,32.5 38.5,33.5C 29.8333,33.5 21.1667,33.5 12.5,33.5C 12.5,32.5 12.5,31.5 12.5,30.5 Z"/></g>
<g><path style="opacity:0.916" fill="#b87023" d="M 12.5,38.5 C 20.8599,38.1688 29.1932,38.5021 37.5,39.5C 33.3333,39.8333 29.1667,40.1667 25,40.5C 20.4428,40.4915 16.2762,39.8248 12.5,38.5 Z"/></g>
<g><path style="opacity:0.626" fill="#b87022" d="M 12.5,45.5 C 18.5368,45.1707 24.5368,45.5041 30.5,46.5C 30.2907,47.086 29.9574,47.586 29.5,48C 24.1667,48.6667 18.8333,48.6667 13.5,48C 12.7476,47.3292 12.4142,46.4959 12.5,45.5 Z"/></g>
</svg>
