<?xml version="1.0" encoding="UTF-8"?>
<!DOCTYPE svg PUBLIC "-//W3C//DTD SVG 1.1//EN" "http://www.w3.org/Graphics/SVG/1.1/DTD/svg11.dtd">
<svg xmlns="http://www.w3.org/2000/svg" version="1.1" width="64px" height="64px" style="shape-rendering:geometricPrecision; text-rendering:geometricPrecision; image-rendering:optimizeQuality; fill-rule:evenodd; clip-rule:evenodd" xmlns:xlink="http://www.w3.org/1999/xlink">
<g><path style="opacity:0.827" fill="#b87023" d="M 33.5,-0.5 C 35.5,-0.5 37.5,-0.5 39.5,-0.5C 51.1667,3.83333 59.1667,11.8333 63.5,23.5C 63.5,25.5 63.5,27.5 63.5,29.5C 62.3121,30.6843 61.1455,30.6843 60,29.5C 56.5,15.3333 47.6667,6.5 33.5,3C 32.3157,1.85453 32.3157,0.687867 33.5,-0.5 Z"/></g>
<g><path style="opacity:0.841" fill="#b87023" d="M 50.5,63.5 C 46.8333,63.5 43.1667,63.5 39.5,63.5C 20.5,55.8333 7.16667,42.5 -0.5,23.5C -0.5,19.8333 -0.5,16.1667 -0.5,12.5C 2.58085,8.08771 6.58085,4.75438 11.5,2.5C 17.4002,5.56287 22.2336,9.8962 26,15.5C 26.6667,16.8333 26.6667,18.1667 26,19.5C 24.1522,22.0107 22.3189,24.5107 20.5,27C 24.3333,33.5 29.5,38.6667 36,42.5C 38.4893,40.6811 40.9893,38.8478 43.5,37C 44.8333,36.3333 46.1667,36.3333 47.5,37C 52.9052,40.7361 57.2385,45.4027 60.5,51C 58.4394,56.2229 55.1061,60.3895 50.5,63.5 Z M 10.5,7.5 C 14.6424,9.11951 18.1424,11.7862 21,15.5C 20.7354,18.8199 19.0688,21.4865 16,23.5C 15.2571,26.7829 15.9238,29.7829 18,32.5C 22.7556,39.2876 28.9223,44.2876 36.5,47.5C 39.2376,46.2717 41.5709,44.4383 43.5,42C 48.9677,42.9323 52.9677,46.0989 55.5,51.5C 52.6673,56.8746 48.334,59.3746 42.5,59C 21.9732,52.4736 8.9732,38.807 3.5,18C 3.62515,16.3732 4.12515,14.8732 5,13.5C 7.03961,11.6298 8.87294,9.62976 10.5,7.5 Z"/></g>
<g><path style="opacity:0.828" fill="#b87023" d="M 33.5,10.5 C 43.483,12.3145 49.8163,18.1478 52.5,28C 51.6667,30.5 50.1667,31 48,29.5C 46.3244,21.1577 41.3244,16.1577 33,14.5C 32.4209,13.0715 32.5876,11.7382 33.5,10.5 Z"/></g>
</svg>
