<svg xmlns="http://www.w3.org/2000/svg" width="64" height="64" style="shape-rendering:geometricPrecision;text-rendering:geometricPrecision;image-rendering:optimizeQuality;fill-rule:evenodd;clip-rule:evenodd"><path style="opacity:.728" fill="#b87023" d="M18.5-.5h26c1.107 4.581 1.273 9.248.5 14-8.541-1.059-15.375 1.775-20.5 8.5a4.932 4.932 0 0 1-3 .5v-8c-1.322.17-2.489-.163-3.5-1-.773-4.752-.607-9.419.5-14Zm2 3h22v9a84.938 84.938 0 0 0-13 .5L25 16.5c.266-3.4-1.234-5.067-4.5-5v-9Z"/><path style="opacity:.657" fill="#b87024" d="M21.5 3.5h7v3h-7v-3Z"/><path style="opacity:.686" fill="#b87024" d="M29.5 3.5h12v3h-12v-3Z"/><path style="opacity:.688" fill="#b77023" d="M21.5 7.5h20v3h-20v-3Z"/><path style="opacity:.788" fill="#b87023" d="M63.5 14.5v8c-2.422 1.785-2.422 3.452 0 5v21a30.85 30.85 0 0 1-4.5 3 72.444 72.444 0 0 0-.5 12h-3v-12h-6c.263 4.1-.07 8.1-1 12h-10a98.284 98.284 0 0 1 1-19.5 18.436 18.436 0 0 0-6-.5v17h4v3h-12v-3h4v-17h-5v20h-10c-.93-3.9-1.263-7.9-1-12h-6v12h-3a72.438 72.438 0 0 0-.5-12 30.854 30.854 0 0 1-4.5-3v-21c2.422-1.548 2.422-3.215 0-5v-8c4.48-5.66 9.647-6.328 15.5-2 3.382 4.35 3.215 8.517-.5 12.5 2.295 2.757 3.295 5.924 3 9.5h9a9.864 9.864 0 0 0 1 6 99.005 99.005 0 0 0 7.5-9c1.55 3.256.716 6.09-2.5 8.5 5.657.5 11.324.666 17 .5v-6a40.936 40.936 0 0 1-9-.5L31 24.5c-.01-3.352 1.656-5.685 5-7a34.51 34.51 0 0 1 7.5 6.5c1.333.667 2.667.667 4 0-2.164-3.119-2.33-6.286-.5-9.5 5.496-6.601 10.996-6.601 16.5 0Zm-57-2c5.856.354 8.023 3.354 6.5 9-3.286 3.985-6.62 3.985-10 0-1.335-4.108-.168-7.108 3.5-9Zm47 0c5.856.354 8.023 3.354 6.5 9-3.38 3.985-6.714 3.985-10 0-1.335-4.108-.168-7.108 3.5-9Zm-19 9c2.725 1.213 5.059 3.046 7 5.5 6.248.188 12.415.688 18.5 1.5.83 6.36.664 12.693-.5 19-4.28.774-8.613 1.274-13 1.5-.96 3.73-1.294 7.563-1 11.5h-4c-.166-5.011 0-10.011.5-15l1.5-1.5a40.936 40.936 0 0 1 9-.5v-12a60.94 60.94 0 0 1-11-.5l-8-8c.556-.383.89-.883 1-1.5Zm-31 6a40.936 40.936 0 0 1 9 .5l2 9c2.982.498 5.982.665 9 .5v3h-13v-8h-3v11a72.444 72.444 0 0 1 12 .5l1.5 1.5c.5 4.989.666 9.989.5 15h-4c.294-3.937-.04-7.77-1-11.5-4.387-.226-8.72-.726-13-1.5-1.292-6.723-1.292-13.39 0-20Z"/></svg>