<svg xmlns="http://www.w3.org/2000/svg" width="64" height="64" style="shape-rendering:geometricPrecision;text-rendering:geometricPrecision;image-rendering:optimizeQuality;fill-rule:evenodd;clip-rule:evenodd"><path style="opacity:.756" fill="#b87023" d="M.5-.5h42a84.028 84.028 0 0 0 7.5 8A21.457 21.457 0 0 0 53.5 1c1.94-.743 3.774-.576 5.5.5-.12 4.98 1.047 9.48 3.5 13.5a156.071 156.071 0 0 0-4 14.5h-3a104.742 104.742 0 0 1 4-13.5c-.983-.59-1.65-.258-2 1L53 32.5a480.952 480.952 0 0 0-.5 31H.5v-32h3v30h46c.166-5.344 0-10.677-.5-16A26.6 26.6 0 0 1 42.5 56c-2.2.825-4.034.325-5.5-1.5a6.541 6.541 0 0 1-3 3c-2.38-.935-4.88-1.268-7.5-1-.146-2.442.687-3.11 2.5-2 1.667-2.667 3.333-2.667 5 0 .589-2.363 2.089-3.363 4.5-3a103.441 103.441 0 0 1 5-24h3a246.948 246.948 0 0 1-5 17c1.32 1.77 2.82 2.103 4.5 1a667.71 667.71 0 0 1 10.5-34c-1.169-1.717-2.835-2.384-5-2a107.453 107.453 0 0 1-3.5 14c-.826 1.905-1.993 2.239-3.5 1l4-12c-7.395-.062-10.395-3.729-9-11h-36c.166 9.006 0 18.006-.5 27-.414.457-.914.79-1.5 1a225.874 225.874 0 0 1-1-30Zm54 4c3.498.065 3.998 1.399 1.5 4-1.188-1.063-1.688-2.397-1.5-4Zm-12 1c4.695 2.525 4.695 3.858 0 4v-4Zm-26 9h19v3h-19v-3Zm25 35c3.633-.057 3.8.943.5 3a4.932 4.932 0 0 1-.5-3Z"/><path style="opacity:.864" fill="#b87024" d="M13.5 11.5c8.007-.166 16.007 0 24 .5 1.333 2 1.333 4 0 6-7.993.5-15.993.666-24 .5v-7Zm3 2v3h19v-3h-19Z"/><path style="opacity:.62" fill="#b77023" d="M12.5 23.5a196.88 196.88 0 0 1 28 1 3.646 3.646 0 0 1-1 1.5c-8.994.5-17.994.666-27 .5v-3Z"/><path style="opacity:.626" fill="#b77024" d="M12.5 30.5h26v3h-26v-3Z"/><path style="opacity:.916" fill="#b87023" d="M12.5 38.5c8.36-.331 16.693.002 25 1l-12.5 1c-4.557-.008-8.724-.675-12.5-2Z"/><path style="opacity:.626" fill="#b87022" d="M12.5 45.5a81.872 81.872 0 0 1 18 1 3.646 3.646 0 0 1-1 1.5 64.247 64.247 0 0 1-16 0c-.752-.67-1.086-1.504-1-2.5Z"/></svg>