<svg xmlns="http://www.w3.org/2000/svg" width="64" height="64" style="shape-rendering:geometricPrecision;text-rendering:geometricPrecision;image-rendering:optimizeQuality;fill-rule:evenodd;clip-rule:evenodd"><path style="opacity:.747" fill="#b87023" d="M25.5-.5h12c9.323 4.307 13.156 11.64 11.5 22-.936 3.707-2.77 6.874-5.5 9.5-3.58 2.253-7.247 4.087-11 5.5 7.31.831 14.644 1.331 22 1.5a167.29 167.29 0 0 0 2 6.5 26.538 26.538 0 0 1 7 5v4c-2.297-1.335-4.297-3.168-6-5.5-5.526-1.32-8.859.847-10 6.5.233 1.432.9 1.932 2 1.5a66.778 66.778 0 0 0 2-5.5c2-1.333 4-1.333 6 0a66.778 66.778 0 0 0 2 5.5c1.244.456 2.077-.044 2.5-1.5.383.556.883.89 1.5 1v3c-1.333 2-3 3.667-5 5h-8c-8.328-7.08-7.661-13.413 2-19 .929-1.189 1.262-2.522 1-4h-21c-.262 1.478.071 2.811 1 4 9.822 5.43 10.489 11.764 2 19h-8c-8.01-7.058-7.343-13.391 2-19 .929-1.189 1.262-2.522 1-4h-20a8.434 8.434 0 0 0 .5 4c8.875 5.254 9.709 11.587 2.5 19h-9c-2-1.333-3.667-3-5-5v-8c1.732-2.892 4.232-4.892 7.5-6 .236-2.264.736-4.43 1.5-6.5 7.356-.169 14.69-.669 22-1.5-4.3-1.905-8.466-4.238-12.5-7-2.783-3.515-4.283-7.515-4.5-12h3c-.04 2.924.793 5.591 2.5 8 2.14-1.987 4.64-3.32 7.5-4-3.85-5.67-3.85-11.17 0-16.5 10.478-3.166 14.645.668 12.5 11.5a26.094 26.094 0 0 1-3.5 5c3.233.54 6.067 1.874 8.5 4 5.611-12.97 1.444-20.97-12.5-24-8.24 1.24-13.24 5.907-15 14-1.175.219-2.175-.114-3-1 1.802-6.797 5.802-11.797 12-15Zm4 11h4c-.023 2.1.644 3.933 2 5.5-2.667 4.667-5.333 4.667-8 0 1.356-1.567 2.023-3.4 2-5.5Zm-7 15c2.19 1.302 4.19 2.969 6 5-3.02.998-5.354-.002-7-3 .363-.683.696-1.35 1-2Zm16 0c1.495-.085 2.495.581 3 2-1.646 2.998-3.98 3.998-7 3 2.052-1.11 3.386-2.777 4-5Zm-32 22c7.27-.464 10.104 2.87 8.5 10-1.981-1.86-2.981-4.192-3-7-2.592-1.482-4.925-1.148-7 1a20.625 20.625 0 0 1-2 6c-1.738-4.285-.57-7.619 3.5-10Zm23 0c6.346 0 9.012 3 8 9-1.63-1.559-2.464-3.559-2.5-6-2.139-1.27-4.305-1.27-6.5 0a21.01 21.01 0 0 1-2.5 6c-1.709-3.941-.542-6.941 3.5-9Zm-21 4c1.276.886 1.276 1.886 0 3-1.062-.925-1.062-1.925 0-3Zm23 0c1.276.886 1.276 1.886 0 3-1.062-.925-1.062-1.925 0-3Zm22 1c1.837.14 2.17.806 1 2-.797-.457-1.13-1.124-1-2Zm-48 5a18.436 18.436 0 0 1 6 .5c.995 2.054.162 3.221-2.5 3.5-2.375-.318-3.542-1.651-3.5-4Zm23 0a18.436 18.436 0 0 1 6 .5c.457.414.79.914 1 1.5-2.53 2.434-5.197 2.6-8 .5.752-.67 1.086-1.504 1-2.5Zm23 0c2.864-.436 5.197.398 7 2.5a28.83 28.83 0 0 0-4 1.5 28.83 28.83 0 0 0-4-1.5c.752-.67 1.086-1.504 1-2.5Z"/></svg>